<svg version="1.1" xmlns="http://www.w3.org/2000/svg" style="display: block;" viewBox="0 0 2048 2048" width="1024" height="1024">
<path transform="translate(0,0)" fill="rgb(254,254,254)" d="M 0 0 L 2048 0 L 2048 1085.02 L 2048 1093.39 L 2048 2048 L 0 2048 L 0 0 z"/>
<path transform="translate(0,0)" fill="rgb(0,0,0)" d="M 1462.29 1502.52 L 1463.68 1503.15 C 1463.53 1503.4 1463.42 1503.66 1463.23 1503.88 C 1453.74 1515.29 1334.79 1530.56 1313.36 1534.68 L 1311.32 1531.81 L 1311.74 1529.78 C 1323.34 1519.44 1398.68 1512.47 1417.67 1509.65 C 1432.56 1507.43 1447.32 1504.13 1462.29 1502.52 z"/>
<path transform="translate(0,0)" fill="rgb(0,0,0)" d="M 1494.66 1518.43 C 1494.98 1518.4 1495.3 1518.35 1495.63 1518.36 C 1497.88 1518.41 1499.86 1518.56 1501.54 1520.04 C 1501.38 1521.2 1501.44 1522.14 1500.7 1523.11 C 1498.73 1525.72 1493.87 1527.66 1490.75 1528.45 C 1479.84 1531.24 1467.49 1531.49 1456.27 1533.5 C 1430.7 1538.08 1405.26 1544.21 1379.43 1547.11 C 1376.53 1547.14 1374.29 1547.43 1371.81 1545.64 L 1372.38 1543.92 C 1391.08 1532.31 1469.92 1521.12 1494.66 1518.43 z"/>
<path transform="translate(0,0)" fill="rgb(0,0,0)" d="M 1683.37 1339.39 C 1690.34 1338.73 1697.26 1338.86 1704.25 1338.95 C 1664.45 1349.17 1624.21 1356.25 1583.84 1363.65 L 1480.74 1383.29 C 1473.58 1384.74 1466.55 1385.86 1459.28 1386.6 C 1482.37 1375.4 1510.04 1370.77 1535.03 1365.29 C 1583.93 1354.57 1633.52 1344.48 1683.37 1339.39 z"/>
<path transform="translate(0,0)" fill="rgb(0,0,0)" d="M 1835.54 1335.45 L 1836.85 1335.89 C 1820.35 1348.02 1584.2 1387.05 1548.5 1392.48 L 1547.36 1392.09 C 1557.72 1380.63 1804.06 1339.16 1835.54 1335.45 z"/>
<path transform="translate(0,0)" fill="rgb(0,0,0)" d="M 339.435 367.503 C 341.549 362.747 343.854 358.17 346.54 353.709 C 359.275 332.557 380.988 316.117 405.085 310.326 C 419.424 306.88 434.626 307.629 447.333 315.817 C 470.295 330.612 476.688 360.64 481.617 385.56 C 513.987 375.547 546.913 369.919 580.693 376.329 C 599.425 379.884 617.349 388.9 628.251 405.03 C 641.75 425.004 640.668 448.291 636.455 470.979 C 661.59 476.628 688.407 482.406 705.315 503.669 C 722.109 524.79 725.22 559.98 722.248 585.774 C 720.098 604.427 714.044 611.713 699.683 623.233 C 703.177 633.852 704.67 644.487 699.946 655.093 C 695.527 665.012 687.079 670.93 677.186 674.632 C 677.19 682.327 676.87 689.982 675.309 697.538 C 671.689 715.059 662.009 729.758 646.903 739.467 C 606.198 765.631 566.381 746.358 524.669 737.169 C 516.743 744.042 508.448 751.532 498.931 756.142 C 485.523 762.635 474.481 760.205 461.071 755.821 C 453.434 773.777 446.357 792.516 441.975 811.545 C 430.01 863.503 431.619 927.051 433.612 980.174 C 438.885 973.932 444.412 968.555 452.016 965.182 C 463.829 959.94 474.974 962.372 486.545 966.571 C 491.02 963.583 495.379 961.169 500.591 959.701 C 509.772 957.116 516.292 961.008 524.149 965.342 C 528.051 960.63 532.318 956.281 537.93 953.643 C 544.894 950.369 552.851 949.614 560.057 952.623 C 569.556 956.59 573.782 964.564 577.328 973.606 C 583.445 974.155 589.726 974.032 594.79 977.912 C 606.807 987.118 606.9 982.879 617.893 987.362 C 622.162 989.103 626.361 992.207 630.267 994.676 C 633.147 994.339 636.708 993.717 639.577 994.344 C 646.793 995.922 652.904 1004.44 658.71 1008.64 C 662.047 1011.06 665.87 1013.02 669.515 1014.93 L 677.029 1007.44 C 675.734 1001.62 676.592 994.916 678.338 989.285 C 680.866 981.128 686.359 976.573 693.683 972.741 C 703.092 972.771 711.64 974.101 720.733 976.456 C 724.032 972.703 727.656 969.094 731.683 966.113 C 741.873 958.572 755.804 952.89 768.622 955.007 C 777.48 956.47 782.054 960.854 787.238 967.748 C 811.791 965.36 862.239 947.124 881.372 930.558 C 881.315 929.476 881.21 928.327 881.355 927.247 C 881.481 926.309 881.819 925.769 882.5 925.104 C 886.699 921.002 893.218 917.515 897.982 913.949 C 909.764 905.129 921.279 895.905 932.866 886.829 C 924.765 883.682 916.282 881.356 911.105 873.832 C 910.489 870.028 911.454 868.556 912.809 865.01 C 910.447 858.771 896.036 854.943 890.237 850.892 C 881.628 844.879 875.891 837.619 870.068 828.987 C 867.803 828.903 865.527 828.794 863.277 828.498 C 856.299 827.579 850.358 823.141 846.358 817.467 C 839.528 807.778 838.308 794.315 840.396 782.929 C 842.972 768.882 850.237 758.19 861.955 750.328 C 858.425 736.529 857.788 723.611 857.786 709.477 C 849.902 704.78 844.34 699.779 840.721 691.072 C 829.854 664.931 845.721 620.387 856.483 595.835 C 872.187 560.011 899.346 532.342 936.064 518.329 C 990.448 497.573 1058.85 504.013 1111.26 527.643 C 1157.19 548.354 1192.97 580.468 1210.73 628.435 C 1227.63 674.076 1224.38 722.261 1204.08 766.217 C 1206.17 768.399 1208.3 770.621 1210.11 773.056 C 1216.72 781.997 1220.42 794.912 1218.22 805.929 C 1217.13 811.389 1214.54 816.559 1209.72 819.611 C 1202.96 823.897 1197.11 822.401 1189.88 820.714 C 1188.97 830.876 1188.13 842.545 1182.29 851.246 C 1179.33 855.647 1175.15 858.88 1169.81 859.663 C 1161.09 860.942 1153.62 856.176 1146.93 851.305 C 1144.46 855.946 1141.94 861.171 1138.68 865.321 C 1133.02 872.551 1126.06 873.904 1117.5 875.119 C 1149.7 933.154 1161.39 1022.69 1166.16 1088.35 C 1187.43 1088.52 1208.76 1087.36 1230.05 1087.32 A 10097.5 10097.5 0 0 0 1384.62 1086.97 C 1385.41 1071.82 1391.34 1074.58 1386.47 1056.98 L 1386.9 1055.49 C 1389.28 1047.23 1395.01 1041.25 1397.52 1033.27 C 1399.43 1027.21 1396.11 1019.35 1399.06 1013.76 C 1400.44 1011.14 1402.38 1009.58 1405.18 1008.71 C 1416.98 1005.02 1429.94 1011.38 1440.3 1016.37 C 1445.48 1006.58 1453.36 1000.52 1462.06 993.982 C 1466.55 990.609 1471.09 986.494 1477.01 987.374 C 1482.66 988.214 1488.46 987.716 1494.16 987.825 C 1511.35 988.153 1523.28 993.391 1537.03 1003.41 C 1537.95 1001.14 1538.89 998.876 1540.12 996.75 C 1547.83 983.389 1560.58 980.434 1574.25 976.451 C 1576.57 966.087 1579.3 954.482 1585.57 945.733 C 1590.06 939.481 1594.76 936.638 1602.28 935.436 C 1604.32 868.639 1585.58 838.568 1568.11 779.081 C 1559.77 791.156 1550.77 800.978 1536.09 805.208 C 1526.22 808.052 1515.53 807.679 1506.54 802.366 C 1491.95 793.746 1488.33 779.741 1484.28 764.594 C 1459.87 784.017 1429.33 803.14 1397.5 805.874 C 1376.79 807.654 1356.19 802.636 1340.24 788.864 C 1316.44 768.328 1312.75 733.893 1310.64 704.535 C 1306.2 705.273 1299.83 707.073 1295.45 705.921 C 1292.86 705.239 1291.25 703.335 1290.18 700.991 C 1285.2 690.057 1288.02 673.096 1291.77 662.115 C 1301.48 633.723 1324.8 613.901 1351.05 601.085 A 143.735 143.735 0 0 1 1350.93 597.012 C 1350.65 578.747 1352.57 562.268 1365.92 548.478 C 1364.37 536.135 1363.77 522.915 1364.41 510.504 C 1366.1 477.402 1379.09 441.108 1404.37 418.651 C 1416.17 408.165 1432.16 400.041 1448.33 401.285 C 1466.32 402.669 1475 414.073 1485.77 426.608 C 1490.08 409 1498.45 389.378 1512.62 377.421 C 1517.85 373.014 1524.45 369.736 1531.46 370.671 C 1539.75 371.779 1544.58 377.032 1549.34 383.269 A 261.513 261.513 0 0 1 1555.21 372.611 C 1570.15 347.281 1594.05 328.458 1622.73 321.389 C 1636.72 317.941 1650.37 319.106 1662.78 326.923 C 1690.1 344.135 1699.31 380.022 1705.59 409.5 C 1732.01 401.556 1760.37 397.475 1787.91 399.817 C 1813.67 402.007 1843.53 409.439 1860.58 430.539 C 1878.56 452.807 1873.28 483.516 1870.71 509.688 C 1898.8 513.971 1927.46 521.546 1945.42 545.309 C 1964.3 570.296 1964.46 605.849 1960.02 635.542 C 1957.2 654.402 1950.62 664.473 1935.31 675.727 C 1935.17 685.277 1934.79 694.248 1932 703.451 C 1927.78 717.355 1919.86 726.478 1907.27 733.312 C 1907.1 745.929 1906.28 757.664 1902.03 769.675 C 1896.28 785.945 1884.33 797.975 1868.77 805.114 C 1830.51 822.673 1779.84 806.301 1742.85 792.248 C 1734.98 803.114 1725.33 812.077 1712.42 816.538 C 1698.02 821.515 1685.96 819.211 1672.78 812.619 C 1661.83 845.785 1655.03 877.405 1652.04 912.318 C 1651.46 919.055 1649.7 927.918 1652.23 934.338 C 1652.79 934.673 1653.26 935.367 1653.92 935.343 C 1655.07 935.302 1662.1 925.394 1669.42 925.127 C 1678.35 924.801 1685.23 931.808 1691.07 937.618 C 1693.26 934.801 1695.47 932.125 1698.29 929.901 C 1703.76 925.579 1710.46 923.199 1717.44 924.38 C 1729.57 926.431 1738.09 938.112 1744.86 947.39 A 36.1294 36.1294 0 0 1 1759.03 946.255 C 1770.1 947.567 1776.42 954.378 1782.85 962.689 C 1804.91 960.46 1806.49 972.425 1812.8 973.115 C 1815.02 973.358 1820.13 971.121 1822.73 970.796 C 1832.03 969.633 1839.61 981.474 1845.73 987.138 C 1848.78 989.955 1852.61 992.212 1855.85 994.883 C 1861.78 989.351 1869.05 983.995 1877.55 983.897 C 1889.68 983.758 1895.73 994.064 1903.3 1001.58 C 1904.3 1002.56 1906 1004.23 1907.54 1004.08 C 1913.69 1003.45 1917.66 999.068 1928.24 999.389 C 1942.39 999.818 1951.04 1007 1960.32 1016.64 C 1963.71 1014.42 1966.75 1012.92 1970.84 1012.56 C 1980.55 1011.7 1988.86 1015.78 1996.02 1022.05 C 2013.35 1037.21 2018.48 1058.36 2019.92 1080.45 A 744.92 744.92 0 0 1 2027.92 1080.06 C 2036.13 1079.71 2041.63 1079.16 2048 1085.02 L 2048 1093.39 C 2019.36 1095.97 1990.17 1095.17 1961.42 1095.86 C 1889.4 1097.58 1817.52 1097.73 1745.49 1098.07 L 1272.33 1102.08 C 1258.57 1102.13 1156.3 1099.42 1151.39 1102.15 C 1150.73 1102.52 1150.1 1103.02 1149.72 1103.66 C 1147.48 1107.44 1144.46 1126.67 1139.54 1135.98 C 1126.4 1160.85 1103.77 1173.07 1084.19 1191.73 C 1063.35 1211.58 1049.58 1233.85 1049 1263.06 C 1065.75 1276.41 1085.9 1285.84 1102.27 1299.48 C 1107.43 1293.34 1112.74 1287.46 1118.58 1281.94 C 1145.35 1256.61 1179.39 1239.78 1216.87 1240.97 C 1252.91 1242.11 1281.89 1258.87 1306.07 1284.71 C 1320.34 1281.29 1334.95 1279.27 1349.39 1276.72 A 4441.34 4441.34 0 0 0 1407.77 1265.67 C 1468.81 1253.84 1554.17 1232.38 1614.98 1235.03 C 1589.87 1241.46 1563.17 1244.13 1537.59 1248.59 L 1438.57 1265.87 C 1395.41 1272.99 1351.78 1279.65 1309.08 1289.18 C 1312.38 1295.79 1317.02 1302.17 1320.96 1308.44 C 1353.17 1302.21 1387.47 1297.12 1420.18 1294.76 C 1389.08 1305.42 1356.34 1308.72 1324.27 1315.29 C 1327.07 1322.03 1329.53 1328.8 1331.36 1335.87 C 1341.82 1376.17 1337.66 1440.76 1327.07 1480.78 C 1322.4 1498.39 1315.09 1516.41 1305.86 1532.13 C 1285.88 1566.14 1255.14 1590.87 1216.7 1600.79 A 143.519 143.519 0 0 1 1106.79 1584.71 A 124.354 124.354 0 0 1 1049.27 1508.8 C 1034.33 1509.38 1001.91 1514.22 990.273 1503.26 C 983.543 1496.92 983.81 1489.46 983.805 1480.94 C 974.864 1480.04 963.521 1478.39 957.315 1471.18 C 954.363 1467.76 953.464 1463.32 953.969 1458.91 C 955.89 1442.09 995.642 1413.67 1008.8 1402.61 A 10999.2 10999.2 0 0 1 784.537 1242.83 C 777.664 1258.62 773.956 1275.99 764.546 1290.52 C 768.988 1306.24 769.161 1322.15 769.466 1338.35 C 784.199 1345.1 797.228 1355.46 808.004 1367.48 C 841.944 1405.35 851.253 1461.11 848.377 1510.37 C 844.721 1572.97 822.493 1652.8 774.045 1695.45 C 740.14 1725.3 688.116 1740.24 643.433 1737 A 148.88 148.88 0 0 1 540.452 1685.11 C 502.633 1641.24 491.839 1578.13 496.017 1521.65 C 500.454 1461.66 525.494 1401.9 571.779 1362.47 C 605.208 1333.99 647.986 1318.2 692.198 1321.81 C 697.628 1303.42 706.304 1291.79 721.647 1280.5 C 732.748 1247.74 741.515 1213.85 753.712 1181.54 C 763.898 1154.57 777.304 1128.85 787.552 1101.78 C 744.558 1102.17 701.451 1104.62 658.452 1105.76 L 454.133 1110.1 C 371.112 1112.15 288.028 1111.66 205.052 1115.87 A 1479.6 1479.6 0 0 0 89.4232 1125.76 A 762.47 762.47 0 0 0 54.8077 1130.84 C 43.6516 1132.79 29.1669 1137.97 17.9672 1136.75 C 14.8436 1136.41 13.0358 1135.55 11.0562 1133.16 C 10.9721 1130.22 11.988 1129.08 13.5698 1126.74 C 19.58 1122.99 28.6351 1122.09 35.5788 1120.62 C 97.0799 1107.58 160.175 1104.95 222.73 1100.92 C 223.489 1086.68 225.425 1071.28 233.876 1059.3 C 241.024 1049.16 249.129 1046.55 260.704 1044.62 C 268.522 1047.91 274.62 1051.21 283.482 1049.54 C 286.994 1044.09 290.845 1038.37 295.261 1033.61 C 299.944 1028.56 311.671 1022.59 318.775 1023.78 C 322.948 1024.49 326.743 1027.09 330.957 1027.54 C 335.361 1028.02 340.096 1026.07 344.558 1025.98 C 353.034 1025.81 362.715 1031.56 368.651 1037.3 C 375.441 1029.1 381.658 1026.43 391.502 1023.16 C 384.994 995.754 388.546 960.201 389.667 931.742 C 390.582 908.502 392.369 885.092 392.298 861.843 C 392.153 814.308 383.884 768.975 369.987 723.664 C 364.075 733.928 356.847 743.297 346.293 749.146 C 336.819 754.397 325.97 755.778 315.626 752.35 C 299.011 746.844 292.105 733.884 284.626 719.468 C 261.914 740.124 226.741 754.973 195.974 755.951 C 179.202 756.485 163.288 752.594 150.971 740.461 C 131.339 721.124 129.677 692.933 129.623 667.137 C 122.644 665.497 116.583 663.729 112.182 657.532 C 107.993 651.633 108.279 644.317 109.797 637.549 C 116.147 609.252 140.15 585.429 163.649 570.151 C 162.916 565.151 162.153 559.97 162.311 554.905 C 162.669 543.391 166.682 532.777 175.333 524.984 C 175.267 513.029 175.026 501.018 175.454 489.07 C 176.705 454.136 187.059 422.079 213.526 397.949 C 225.058 387.436 241.414 378.087 257.524 379.31 C 271.866 380.398 280.578 389.868 289.127 400.238 L 289.339 399.033 C 292.116 384.011 296.252 364.904 310.061 355.986 C 314.047 353.411 318.683 352.091 323.383 353.257 C 330.743 355.082 335.806 361.304 339.435 367.503 z"/>
<path transform="translate(0,0)" fill="rgb(254,254,254)" d="M 919.523 861.471 C 924.787 862.302 931.781 862.538 935.573 866.647 L 935.045 869.507 C 932.614 870.535 929.963 871.649 927.377 872.206 C 924.711 872.78 923.486 872.271 921.193 870.98 C 919.136 868.012 919.523 864.923 919.523 861.471 z"/>
<path transform="translate(0,0)" fill="rgb(254,254,254)" d="M 439.563 710.744 C 439.66 711.382 439.852 712.013 439.854 712.658 C 439.883 719.903 430.97 738.613 426.143 743.398 C 425.22 740.812 424.004 737.979 424.163 735.19 C 424.563 728.155 434.681 715.369 439.563 710.744 z"/>
<path transform="translate(0,0)" fill="rgb(254,254,254)" d="M 1124.72 764.394 C 1126.6 765.009 1128.64 765.616 1130.35 766.631 C 1132.38 767.831 1133.98 770.052 1134.18 772.46 C 1134.5 776.436 1131.99 780.011 1129.37 782.665 C 1126.35 783.36 1124.58 784.109 1121.8 782.461 C 1120.09 777.251 1123.29 769.636 1124.72 764.394 z"/>
<path transform="translate(0,0)" fill="rgb(254,254,254)" d="M 1032.15 857.219 L 1032.45 857.447 L 1032.53 858.75 C 1029.43 861.742 1026.11 864.327 1022.41 866.537 C 1016.91 869.82 1011.78 871.821 1005.47 870.307 C 1003.74 868.193 1003.01 868.096 1002.92 865.257 C 1007.86 860.301 1024.84 859.429 1032.15 857.219 z"/>
<path transform="translate(0,0)" fill="rgb(254,254,254)" d="M 1096.8 1418.86 C 1113.41 1420.94 1130.55 1423.43 1146.82 1427.29 L 1137.99 1428.7 C 1123.2 1429.59 1107.78 1434.1 1092.98 1433.14 L 1092.14 1431.92 C 1094.54 1431.58 1093.36 1431.93 1095.68 1430.8 C 1097.09 1426.85 1096.83 1422.99 1096.8 1418.86 z"/>
<path transform="translate(0,0)" fill="rgb(254,254,254)" d="M 1097.07 1388.52 C 1104.89 1393.39 1126.01 1405.86 1131.3 1412.51 L 1130.02 1413.41 L 1092.43 1408.11 C 1093.64 1401.45 1095.22 1395.03 1097.07 1388.52 z"/>
<path transform="translate(0,0)" fill="rgb(254,254,254)" d="M 1051.46 1281.29 C 1057.53 1284.56 1059.85 1291.61 1066.22 1295.01 C 1067.62 1295.76 1068.6 1296.04 1069.51 1297.41 C 1069.72 1297.73 1069.84 1298.12 1070.07 1298.43 C 1071.43 1300.23 1072.72 1301.15 1074.86 1301.7 C 1075.72 1299.11 1074.83 1297.11 1074.29 1294.49 C 1075.4 1295.14 1074.91 1294.81 1076.08 1295.7 L 1076.97 1296.38 L 1078.98 1295.18 L 1079.79 1296.15 L 1076.51 1297.2 L 1075.7 1298.98 C 1076.63 1301.75 1077.96 1303.48 1080.38 1305.11 C 1082.42 1306.48 1084.21 1306.87 1086.63 1306.43 L 1087.06 1303.51 C 1088.74 1303.41 1087.81 1303.28 1089.74 1304.33 L 1088.96 1306.28 L 1089.72 1306.83 L 1092.39 1308.05 C 1093.22 1313.59 1085.73 1322.23 1082.69 1326.65 C 1074.49 1321.96 1063.95 1316.78 1057.8 1309.61 C 1051.3 1302.04 1050.63 1290.84 1051.46 1281.29 z"/>
<path transform="translate(0,0)" fill="rgb(254,254,254)" d="M 932.924 899.95 C 931.958 908.891 928.175 919.978 926.91 929.833 C 925.508 940.761 926.442 951.359 925.531 962.192 C 923.743 964.092 923.696 964.408 921.161 964.816 C 916.83 961.481 913.837 955.986 910.746 951.513 C 905.361 943.733 899.238 936.335 893.461 928.836 A 1381.69 1381.69 0 0 0 932.924 899.95 z"/>
<path transform="translate(0,0)" fill="rgb(254,254,254)" d="M 695.184 1503.06 C 697.514 1503.06 700.194 1502.92 702.419 1503.69 C 707.571 1505.47 712.297 1511.05 714.273 1515.99 C 716.609 1521.82 716.767 1528.34 714.204 1534.13 C 711.571 1540.07 707.265 1542.44 701.506 1544.85 C 698.914 1544.59 696.204 1544.37 693.741 1543.47 C 688.701 1541.62 684.456 1537.21 682.219 1532.4 A 21.8923 21.8923 0 0 1 681.723 1514.86 C 684.374 1508.42 689.054 1505.77 695.184 1503.06 z"/>
<path transform="translate(0,0)" fill="rgb(254,254,254)" d="M 925.689 972.953 C 928.294 981.788 927.643 993.155 928.328 1002.42 C 923.754 1002.94 918.132 1003.57 914.436 1006.57 C 913.013 1007.73 912.8 1009.71 912.667 1011.46 C 912.432 1014.52 911.886 1015.54 909.98 1017.97 C 903.935 1019.07 897.17 1020.88 891.051 1021 C 889.284 1021.04 887.566 1021.11 885.804 1021.24 C 882.112 1017.87 877.975 1013.33 873.261 1011.49 C 868.763 1009.75 864.572 1011.38 860.364 1013.11 C 859.354 1013.85 858.342 1014.58 857.303 1015.27 C 854.958 1016.83 853.195 1017.89 850.383 1017.34 C 848.688 1014.24 849.765 1009.88 850.152 1006.45 C 877.428 998.8 901.246 986.973 925.689 972.953 z"/>
<path transform="translate(0,0)" fill="rgb(254,254,254)" d="M 919.622 1052.19 C 922.219 1059.05 929.107 1064.45 934.166 1069.69 C 934.717 1073.72 934.909 1077.84 935.24 1081.9 L 854.873 1085.1 L 841.46 1086.15 C 845.219 1077.5 848.179 1068.85 850.962 1059.85 C 865.761 1062.63 886.413 1062.94 901.451 1060.93 C 908.874 1059.94 914.989 1058.36 919.622 1052.19 z"/>
<path transform="translate(0,0)" fill="rgb(254,254,254)" d="M 759.5 1193.59 C 769.196 1196.76 778.709 1199 788.834 1200.27 C 781.063 1225.11 771.531 1249.31 762.261 1273.61 C 762.008 1274.07 760.951 1274.77 760.53 1275.11 C 751.57 1275.59 743.716 1273.88 735.069 1271.86 A 3969.96 3969.96 0 0 1 759.5 1193.59 z"/>
<path transform="translate(0,0)" fill="rgb(254,254,254)" d="M 1101.12 720.855 C 1107.82 732.47 1111.84 748.217 1116.64 760.908 C 1111.28 779.586 1109.66 799.176 1102.3 817.31 C 1089.86 847.99 1067.68 870.012 1037.27 882.746 C 1032.68 884.3 1027.93 885.461 1023.27 886.756 C 1034.22 879.615 1045.53 872.614 1054.99 863.523 C 1086.88 832.907 1100.04 763.439 1101.12 720.855 z"/>
<path transform="translate(0,0)" fill="rgb(254,254,254)" d="M 1160.43 1437.4 C 1166.82 1437.1 1191.22 1435.1 1195.52 1439.94 C 1197.21 1441.85 1197.38 1442.62 1197.14 1444.96 C 1189.46 1455.63 1120.99 1464.08 1104.83 1466.85 C 1093.52 1469.17 1081.64 1470.24 1070.18 1471.81 A 921.351 921.351 0 0 1 1069.55 1449.88 C 1089.95 1443.01 1137.49 1439.23 1160.43 1437.4 z"/>
<path transform="translate(0,0)" fill="rgb(254,254,254)" d="M 1066.12 1399.06 C 1066.64 1399.13 1066.82 1399.12 1067.36 1399.45 C 1072.47 1402.47 1077.02 1416.67 1078.86 1422.23 C 1059.13 1436.51 1035.85 1442 1012.95 1449.36 C 1010.19 1446.41 1007.34 1444.21 1004.05 1441.89 C 998.234 1438.98 991.978 1436.79 985.919 1434.44 C 995.324 1425.04 1014.02 1408.98 1024.91 1401.22 C 1040.58 1407.21 1050.85 1403.85 1066.12 1399.06 z"/>
<path transform="translate(0,0)" fill="rgb(254,254,254)" d="M 734.825 1284.3 C 740.867 1284.41 747.46 1284.2 752.075 1288.73 C 760.579 1297.09 759.739 1323.38 759.489 1334.42 C 759.346 1340.74 759.264 1347.45 758.07 1353.68 C 753.541 1377.27 724.459 1479.73 708.931 1494.59 C 706.323 1494.14 706.319 1494.07 704.545 1492.09 C 702.656 1482.77 711.875 1466.26 715.544 1457.25 C 728.129 1425.11 750.541 1349.37 745.721 1315.08 C 744.892 1309.19 743.691 1301.24 738.694 1297.45 C 736.184 1297.23 735.561 1297.15 733.446 1298.83 C 727.064 1303.89 725.452 1319.36 724.71 1327.11 L 702.065 1323.42 A 122.64 122.64 0 0 1 704.282 1316.55 C 709.637 1301.33 720.596 1291.16 734.825 1284.3 z"/>
<path transform="translate(0,0)" fill="rgb(254,254,254)" d="M 1055.86 1322.52 C 1065.4 1326.78 1074.03 1333.87 1082.84 1339.48 C 1103.96 1352.94 1124.58 1366.92 1145.36 1380.89 C 1166.28 1394.95 1189.39 1409.6 1207.51 1427.15 C 1193.27 1424.42 1177.38 1423.28 1163.72 1418.41 C 1150.22 1413.59 1137.22 1402.88 1125.25 1395 C 1105.44 1381.98 1085.58 1368.63 1064.91 1357.03 C 1061.16 1345.84 1058.73 1333.97 1055.86 1322.52 z"/>
<path transform="translate(0,0)" fill="rgb(254,254,254)" d="M 1205.85 1290.34 C 1213.06 1289.58 1220.62 1289.66 1227.76 1291.04 C 1246.55 1294.67 1261.16 1307.65 1271.79 1322.95 C 1246.98 1327.74 1221.25 1329.14 1196.1 1331.52 C 1174.77 1333.53 1153.18 1336.5 1131.77 1336.96 L 1141.56 1326.83 L 1151.25 1317.82 C 1171.31 1320.95 1213.79 1312.83 1235.11 1309.35 C 1207.63 1307.49 1179.75 1314.09 1152.42 1316.28 C 1168.29 1302.07 1184.69 1293.51 1205.85 1290.34 z"/>
<path transform="translate(0,0)" fill="rgb(254,254,254)" d="M 1209.18 1275.38 C 1219.57 1274.22 1231.28 1275.87 1241.26 1278.85 C 1264.07 1285.66 1281.41 1302.67 1292.39 1323.39 C 1315.82 1367.62 1313.84 1426.55 1299.15 1473.27 C 1287.99 1508.77 1266.85 1542.68 1233.01 1560.22 C 1205.69 1574.38 1171.56 1576.01 1142.42 1566.55 C 1114.65 1557.53 1097.04 1538.66 1084.32 1513.05 C 1080.94 1506.26 1075.42 1489.84 1077.74 1482.64 L 1079.45 1481.99 C 1079.89 1482.29 1080.47 1482.45 1080.77 1482.89 C 1082.2 1484.98 1085.19 1500.73 1086.35 1504.44 A 94.1731 94.1731 0 0 0 1093.14 1520.55 C 1105.59 1543.52 1125.07 1555.26 1149.47 1562.36 C 1177.49 1568.13 1206.05 1565.21 1231.36 1551.47 C 1264.77 1533.35 1285.19 1501.81 1295.79 1465.99 C 1308.67 1422.49 1309.54 1366.1 1287.26 1325.6 C 1276.28 1305.65 1260.11 1288.64 1237.66 1282.36 C 1196.29 1270.78 1155.98 1293.25 1129.58 1324.01 C 1124.69 1329.7 1119.19 1341.26 1112.9 1344.77 C 1112.73 1339.61 1121 1329.38 1124.27 1325.38 C 1146.38 1298.35 1173.85 1279.12 1209.18 1275.38 z"/>
<path transform="translate(0,0)" fill="rgb(254,254,254)" d="M 979.394 1165.88 L 979.983 1165.93 C 980.31 1166.26 980.819 1166.49 980.963 1166.93 C 981.22 1167.74 975.496 1181.86 974.843 1184 C 959.736 1233.62 968.858 1279.11 988.913 1325.7 C 982.971 1321.17 976.722 1316.99 970.605 1312.7 C 968.508 1311.02 966.927 1309.39 965.528 1307.1 C 949.664 1281.04 928.573 1234.98 936.479 1204.38 C 941.331 1185.61 963.98 1174.81 979.394 1165.88 z"/>
<path transform="translate(0,0)" fill="rgb(254,254,254)" d="M 817.715 1053.74 C 825.581 1054.57 833.329 1055.59 840.877 1058.02 C 840.493 1059.9 839.999 1061.66 839.383 1063.48 C 830.87 1088.59 820.609 1113.21 811.39 1138.08 C 805.604 1153.68 801.084 1170.38 794.27 1185.52 C 792.99 1188.36 791.879 1190.11 789.012 1191.53 C 780.147 1189.85 771.596 1187.58 763.222 1184.21 C 770.425 1164.23 780.47 1144.96 788.805 1125.39 C 798.897 1101.7 807.495 1077.38 817.715 1053.74 z"/>
<path transform="translate(0,0)" fill="rgb(254,254,254)" d="M 1087.69 864.79 A 220.964 220.964 0 0 1 1090.19 865.924 C 1107.03 873.7 1113.8 886.112 1119.96 902.757 C 1113.86 920.49 1101.97 937.639 1092.21 953.581 L 1074.6 944.974 C 1060.73 938.946 1046.6 934.749 1031.78 931.82 C 1040.99 902.456 1062.52 881.164 1087.69 864.79 z"/>
<path transform="translate(0,0)" fill="rgb(254,254,254)" d="M 1038.89 943.791 C 1049.55 945.623 1059.45 948.911 1069.48 952.888 C 1054.34 981.508 1036.17 999.341 1011.99 1020.12 C 1005.16 1017.85 997.752 1015.59 990.859 1019.2 C 973.783 1028.16 985.492 1059.39 982.922 1068.05 C 977.541 1069.49 972.05 1067.58 966.312 1068.81 C 965.948 1068.88 965.587 1068.97 965.225 1069.06 C 963.144 1066.54 961.007 1064.1 958.812 1061.68 L 957.36 1062.01 C 956.676 1062.18 955.501 1062.5 954.728 1062.62 C 946.765 1063.9 949.102 1054.05 944.227 1050.23 C 941.609 1053.29 943.404 1057.41 940.692 1060.46 L 939.017 1060.04 C 937.17 1058.25 935.854 1056.63 934.835 1054.24 C 931.087 1045.45 933.463 1030.63 937.175 1022.02 C 941.954 1010.92 949.936 1005.9 960.618 1001.67 L 967.184 1010.52 C 969.752 1009.32 972.743 1007.69 975.617 1007.5 C 978.755 1007.3 981.818 1010.68 984.03 1012.59 C 1010.13 996.776 1024.08 969.372 1038.89 943.791 z"/>
<path transform="translate(0,0)" fill="rgb(254,254,254)" d="M 1683.43 722.724 C 1685.47 725.923 1683.43 729.829 1682.28 733.247 C 1676.47 750.565 1671.89 768.408 1666.51 785.886 C 1657.1 816.382 1646.83 846.421 1642.01 878.09 C 1639.39 895.292 1639.33 912.591 1638.04 929.904 C 1629.54 930.022 1622.23 931.378 1614.19 934.041 C 1615.51 910.395 1614.49 884.621 1609.17 861.549 C 1601.34 827.649 1586.47 795.676 1577.86 761.976 C 1579.57 757.541 1581.74 753.419 1583.95 749.221 C 1586.06 747.212 1587.58 745.458 1590.55 744.871 C 1594.89 748.501 1598.68 774.718 1600.55 781.452 C 1606.8 803.926 1619.19 823.515 1624.89 846.191 C 1626.67 842.545 1628.28 838.994 1628.76 834.921 C 1629.79 826.237 1629.12 817.028 1629.05 808.284 C 1628.82 783.224 1627.35 757.426 1631.42 732.642 C 1639.1 764.54 1633.41 798.038 1632.76 830.305 C 1650.1 811.414 1662.72 772.405 1672.16 748.436 C 1675.55 739.853 1678.58 730.59 1683.43 722.724 z"/>
<path transform="translate(0,0)" fill="rgb(254,254,254)" d="M 671.617 1366.37 C 684.463 1364.74 712.882 1363.97 724.35 1368.47 C 727.008 1369.51 727.741 1370.3 728.876 1372.85 C 728.591 1373.57 728.711 1374.65 728.022 1375 C 725.862 1376.07 717.378 1374.41 714.561 1374.12 C 680.12 1370.55 643.927 1371.8 614.629 1392.48 C 575.459 1420.13 552.288 1470.06 544.563 1516.2 C 537.678 1557.33 542.635 1606.68 567.67 1641.31 C 584.577 1664.7 611.243 1678.81 639.489 1683.09 C 675.537 1688.55 709.779 1678.36 738.693 1656.68 C 777.708 1627.42 796.354 1583.63 802.954 1536.37 C 809.011 1492.99 806.588 1445.9 779.323 1409.89 C 773.259 1403.16 765.182 1398.62 759.514 1391.91 C 759.674 1389.62 759.734 1389.56 761.24 1387.82 C 765.039 1387.29 768.571 1390.08 771.631 1392.35 C 794.805 1409.52 803.568 1437.36 807.898 1464.74 C 816.653 1520.1 805.585 1586.26 771.919 1632.22 A 147.942 147.942 0 0 1 673.346 1691.79 A 116.882 116.882 0 0 1 585.966 1669.76 C 555.814 1646.77 540.885 1612.23 536.19 1575.29 C 529.265 1520.8 543.177 1463.39 577.27 1419.98 C 602.084 1388.39 631.634 1371.05 671.617 1366.37 z"/>
<path transform="translate(0,0)" fill="rgb(254,254,254)" d="M 465.594 683.804 C 467.529 686.852 464.667 696.786 463.912 700.668 C 457.612 733.075 442.151 762.341 432.913 793.796 C 417.113 847.598 416.384 935.14 421.14 992.038 C 411.353 997.978 407.509 1002.85 402.958 1013.14 C 400.845 985.819 400.907 959.15 402.224 931.777 C 407.089 879.409 406.767 826.824 396.92 775.082 A 360.663 360.663 0 0 0 390.552 747.468 C 387.832 737.556 378.026 714.678 380.772 704.86 C 381.248 703.158 381.305 702.845 382.888 701.998 C 398.498 715.311 407.574 721.006 412.622 741.892 C 414.014 747.651 415.203 753.937 418.474 758.972 C 420.313 761.801 421.961 763.03 425.207 763.791 C 436.009 760.282 450.819 723.887 454.739 713.305 C 458.354 703.546 460.607 692.968 465.594 683.804 z"/>
<path transform="translate(0,0)" fill="rgb(254,254,254)" d="M 868.51 1099.43 C 889.918 1098.68 911.387 1098.95 932.807 1098.92 C 926.716 1104.93 919.344 1109.96 912.665 1115.33 C 895.934 1128.78 880.513 1143.67 869.23 1162.09 C 856.522 1182.84 853.442 1203.21 859.191 1226.78 L 861.568 1236.74 C 842.456 1222.03 820.15 1208.95 802.744 1192.41 C 806.484 1177.28 812.606 1162.55 818.029 1147.96 L 835.296 1100.59 C 846.33 1100.8 857.484 1099.93 868.51 1099.43 z"/>
<path transform="translate(0,0)" fill="rgb(254,254,254)" d="M 1007.71 516.839 C 1027.76 515.933 1050.48 519.209 1069.8 524.665 C 1049.21 543.686 1031.54 564.556 1016.65 588.32 C 1014.04 592.479 998.199 623.35 997.269 624.202 C 996.22 625.163 994.592 624.799 993.25 624.837 C 972.946 623.391 952.598 626.008 932.459 628.287 A 653.786 653.786 0 0 1 936.619 612.388 C 947.479 574.326 972.512 536.299 1007.71 516.839 z"/>
<path transform="translate(0,0)" fill="rgb(254,254,254)" d="M 798.279 1203.16 C 798.523 1203.28 798.769 1203.39 799.011 1203.51 C 806.675 1207.41 813.956 1213.78 820.862 1218.95 A 2612.07 2612.07 0 0 0 856.461 1245.36 C 890.049 1269.66 923.787 1293.6 957.086 1318.31 C 968.961 1327.12 984.118 1336.13 994.017 1346.94 C 998.686 1352.04 1012.94 1384.91 1015.63 1392.96 L 1015.12 1393.31 L 1009.54 1389.8 C 970.973 1367.6 935.885 1339.24 899.846 1313.22 C 862.668 1286.38 824.108 1260.71 788.361 1232 C 791.429 1222.27 794.665 1212.7 798.279 1203.16 z"/>
<path transform="translate(0,0)" fill="rgb(254,254,254)" d="M 984.849 518.421 C 986.029 518.288 987.021 518.443 988.193 518.585 C 981.958 525.472 974.06 531.151 967.625 538.086 C 942.988 564.636 930.135 595.902 922.376 630.956 C 889.976 643.27 869.04 662.586 852.849 692.762 C 849.919 687.743 848.417 682.281 847.861 676.515 C 844.82 644.979 866.391 590.25 885.959 566.352 C 911.073 535.679 946.217 522.154 984.849 518.421 z"/>
<path transform="translate(0,0)" fill="rgb(254,254,254)" d="M 979.752 880.931 C 979.859 880.921 979.966 880.913 980.073 880.9 C 992.167 879.415 1012.1 898.615 1027.11 899.276 C 1031.26 899.458 1036.08 897.582 1040.03 896.421 C 1033.88 905.954 1016.52 928.071 1020.06 939.625 C 1020.99 942.655 1024.06 943.964 1026.63 945.388 C 1016.33 963.882 1005.85 981.525 989.946 995.821 C 977.071 1003.91 971.051 993.415 958.354 993.981 C 950.247 994.343 944.714 999.693 939.375 1005.13 C 932.393 976.859 932.03 917.149 945.154 891.527 C 957.667 889.377 968.122 886.026 979.752 880.931 z"/>
<path transform="translate(0,0)" fill="rgb(254,254,254)" d="M 788.413 978.017 C 824.425 974.413 857.798 956.629 887.764 937.636 C 896.851 946.359 903.799 957.838 909.888 968.765 C 888.588 986.05 852.327 998.991 825.495 1002.66 C 816.007 1003.96 808.433 1000.73 798.768 1003.84 C 798.771 1000.05 799.456 996.797 797.561 993.431 C 789.236 988.296 771.936 990.235 761.948 989.186 C 751.484 996.698 746.114 1008.35 739.947 1019.32 C 742.021 1017.74 747.916 1012.5 750.516 1013.13 C 752.258 1013.55 752.666 1014.22 753.897 1015.38 C 759.82 1020.93 780.409 1020.34 788.304 1019.94 C 790.852 1019.81 793.632 1019.76 796.141 1019.34 C 798.641 1019.05 800.521 1018.88 802.98 1019.62 C 813.965 1022.95 824.731 1023.48 836.044 1025.01 C 848.399 1026.68 860.893 1028.77 873.328 1029.68 C 881.944 1030.32 899.032 1026.63 905.731 1031.6 A 9.84081 9.84081 0 0 1 909.567 1038.25 C 910.002 1041.54 908.779 1045.46 906.238 1047.72 C 893.939 1058.65 824.437 1044.47 806.048 1042.21 A 1736.75 1736.75 0 0 0 745.693 1035.96 C 741.687 1031.02 737.891 1026.12 732.922 1022.11 C 733.681 1017.55 734.34 1013.31 734.106 1008.65 L 731.626 1007.29 L 733.279 1005.1 C 729.34 1009.23 728.114 1016.52 725.801 1021.72 C 724.867 1023.83 724.242 1025.69 722.036 1026.57 C 720.59 1024.6 720.568 1022.98 720.307 1020.57 C 718.825 1006.91 722.864 989.261 731.774 978.687 C 738.692 970.478 749.292 965.216 759.992 964.474 C 772.542 963.604 779.775 970.123 788.413 978.017 z"/>
<path transform="translate(0,0)" fill="rgb(254,254,254)" d="M 940.611 1103.89 C 966.201 1106.11 991.835 1107.52 1017.43 1109.61 C 1008.43 1121.09 1001.58 1137.09 991.277 1147.03 C 986.341 1151.79 979.865 1154.79 973.899 1158.05 C 955.677 1167.99 934.529 1178.67 925.958 1198.83 C 915.451 1223.56 931.074 1269.84 941.16 1293.83 L 921.513 1279.39 C 907.463 1269.56 883.587 1256.15 874.068 1242.4 C 870.724 1237.57 868.832 1231.1 866.736 1225.63 A 93.9004 93.9004 0 0 0 872.748 1226.47 C 884.056 1227.64 905.76 1228.74 915.002 1221.27 L 914.6 1219.81 C 901.736 1214.54 878.277 1220.04 868.349 1215.55 C 865.447 1211.68 864.9 1207.78 865.152 1202.99 C 867.552 1157.45 910.122 1132.59 939.703 1104.76 L 940.611 1103.89 z"/>
<path transform="translate(0,0)" fill="rgb(254,254,254)" d="M 1123.47 914.706 C 1134.59 928.362 1149.63 1019.54 1152.25 1041.18 C 1154.14 1056.93 1154.88 1072.78 1155.62 1088.61 C 1141.84 1091.08 1128.52 1095.01 1114.61 1096.98 C 1062.92 1104.28 1011.54 1100.41 959.756 1096.77 L 948.878 1095.38 L 946.441 1071.66 C 960.818 1076.36 973.372 1079.28 988.539 1079.02 L 995.773 1071.54 C 1001.79 1072.12 1008.57 1073.24 1014.58 1072.84 C 1019.26 1072.53 1023.14 1070.81 1026.21 1067.2 C 1032.11 1060.26 1033.06 1048.77 1031.9 1040.12 C 1030.91 1032.69 1028.49 1027.36 1022.49 1022.77 C 1045.11 1004.76 1062.08 984.684 1076.94 960.009 C 1083.83 963.691 1089.29 967.574 1097.33 965.728 C 1102.1 962.619 1118.35 923.435 1123.47 914.706 z"/>
<path transform="translate(0,0)" fill="rgb(254,254,254)" d="M 1136.42 1101.43 C 1138.5 1101.11 1138.2 1101.25 1139.91 1102.15 C 1140 1102.55 1140.13 1102.94 1140.18 1103.34 C 1140.77 1108.41 1138.06 1115.63 1136.17 1120.39 C 1118.02 1165.98 1073.73 1172.47 1049.61 1210.71 C 1020.72 1256.53 1050.9 1338.03 1062.14 1387.16 A 54.665 54.665 0 0 1 1056.82 1390.34 C 1046.16 1396.04 1037 1394.27 1026.02 1390.95 C 1024.17 1387.96 1022.64 1384.72 1021.01 1381.61 C 1005.62 1350.7 983.792 1293.48 978.46 1259.54 A 161.627 161.627 0 0 1 998.979 1154.12 C 1008.24 1138.67 1019.56 1124.74 1030.09 1110.19 C 1065.96 1109.02 1100.83 1105.93 1136.42 1101.43 z"/>
<path transform="translate(0,0)" fill="rgb(254,254,254)" d="M 1266.82 1330.39 C 1268.32 1330.18 1269.99 1329.83 1271.51 1329.86 C 1273.35 1329.89 1274.44 1329.77 1275.66 1331.15 C 1279.37 1335.33 1281.21 1342.14 1282.86 1347.4 C 1290.45 1371.67 1291.57 1393.19 1290.67 1418.4 C 1272.07 1418.8 1254.98 1418.73 1238.53 1428.61 C 1255.58 1427.32 1272.16 1424.69 1289.35 1424.89 C 1288.64 1441.56 1286 1459.1 1279.17 1474.39 C 1257.95 1477.99 1235.65 1480.44 1215.31 1487.66 C 1236 1487.52 1256.4 1484.23 1276.92 1481.93 C 1273.96 1489.49 1270.31 1495.67 1265.61 1502.25 C 1258.88 1503.96 1226 1512.14 1222.86 1515.13 L 1224.17 1516.54 C 1234.87 1519.65 1249.38 1513.69 1259.98 1510.84 C 1257.07 1515.11 1253.75 1519.3 1250.2 1523.06 C 1230.21 1544.22 1204.44 1552.8 1175.91 1553.45 C 1158.43 1553.09 1140.8 1549.73 1126.01 1539.92 C 1104.83 1525.89 1097.15 1504.33 1092.38 1480.44 C 1110.49 1476.8 1187.59 1465.78 1198.77 1458.84 C 1204.5 1455.29 1205.29 1444.93 1206.57 1438.88 C 1211.75 1439.1 1218.12 1439.32 1222.08 1435.36 C 1223.43 1433.99 1223.91 1431.94 1223.66 1430.06 C 1223.14 1426.26 1221.23 1423.44 1218.62 1420.75 C 1209.96 1411.83 1198.36 1404.74 1188.25 1397.52 A 4160.84 4160.84 0 0 0 1123.15 1352.45 L 1126.93 1345.14 C 1140.73 1344.87 1154.71 1342.95 1168.45 1341.61 C 1201.35 1338.42 1234 1334.2 1266.82 1330.39 z"/>
<path transform="translate(0,0)" fill="rgb(254,254,254)" d="M 1081.44 528.67 C 1089.15 530.497 1096.93 533.056 1104.26 536.038 C 1146.91 553.382 1181.14 584.536 1198.89 627.327 C 1217.27 671.645 1213.69 720.929 1195.79 764.61 C 1191.98 767.053 1188.42 768.848 1183.99 769.904 C 1170.83 773.04 1158.65 770.035 1147.42 762.977 C 1121.62 738.132 1130.84 705.288 1109.53 676.65 C 1085.97 644.988 1045.73 631.533 1008.13 626.205 C 1021.12 589.305 1051.58 552.939 1081.44 528.67 z"/>
<path transform="translate(0,0)" fill="rgb(254,254,254)" d="M 931.599 660.954 C 937.057 661.776 942.45 665.415 947.867 666.895 C 952.737 668.224 958.088 667.024 963.057 667.71 C 967.936 668.385 972.92 670.122 977.664 671.453 C 990.673 675.101 1000.09 674.245 1013.16 671.757 L 1024 679.139 C 1026.71 678.585 1030.84 677.344 1033.58 678.274 C 1038.34 679.897 1044.59 693.406 1048.68 697.504 C 1052.51 701.342 1060.43 704.053 1065.44 706.533 C 1069.18 713.415 1073.22 718.124 1079.32 722.906 C 1077.88 763.642 1063.27 811 1043.57 846.149 C 1036.25 847.271 1028.99 849.064 1021.76 850.651 C 1004.96 853.758 988.449 856.256 971.303 856.08 C 943.339 855.791 910.932 851.744 890.569 830.44 C 872.259 811.283 870.153 781.359 876.173 756.645 C 879.224 744.122 884.581 732.342 887.182 719.643 C 890.85 701.733 891.428 683.463 891.788 665.248 C 907.324 664.322 916.918 668.979 931.599 660.954 z"/>
<path transform="translate(0,0)" fill="rgb(0,0,0)" d="M 1042.73 725.708 C 1043.68 725.794 1045.17 725.89 1046.05 726.168 C 1048.79 727.041 1049.24 728.194 1050.54 730.528 C 1050.61 734.041 1049.91 736.261 1048.59 739.498 L 1045.17 739.513 C 1043.74 738.657 1042.59 738.367 1041.84 736.778 C 1040.09 733.044 1041.38 729.337 1042.73 725.708 z"/>
<path transform="translate(0,0)" fill="rgb(0,0,0)" d="M 1003.91 719.687 L 1008.37 720.418 C 1010.31 721.994 1011.69 722.655 1011.87 725.395 C 1012.07 728.298 1010.1 730.81 1008.52 733.035 L 1005.05 732.99 C 1003.05 731.661 1001.8 731.056 1001.31 728.46 C 1000.69 725.173 1002.33 722.401 1003.91 719.687 z"/>
<path transform="translate(0,0)" fill="rgb(0,0,0)" d="M 905.783 718.703 C 907.14 718.793 909.227 718.765 910.457 719.306 C 912.724 720.303 914.243 721.926 914.739 724.395 C 915.376 727.562 913.558 730.858 912.238 733.6 C 910.599 733.463 908.966 733.363 907.416 732.747 C 905.435 731.958 903.681 730.32 903.105 728.216 C 902.115 724.596 903.889 721.582 905.783 718.703 z"/>
<path transform="translate(0,0)" fill="rgb(0,0,0)" d="M 948.465 722.639 C 950.834 723.751 952.975 724.665 954.329 727.059 C 955.817 729.688 956.188 733.195 955.191 736.05 C 952.862 742.722 948.363 745.611 942.387 748.736 C 939.737 748.059 938.289 747.071 936.391 745.156 L 936.443 743.411 C 938.653 740.364 942.697 738.673 945.931 736.859 C 946.909 735.185 946.858 735.72 947.032 734.105 C 947.447 730.246 947.848 726.481 948.465 722.639 z"/>
<path transform="translate(0,0)" fill="rgb(0,0,0)" d="M 970.461 758.814 C 972.491 759.449 974.873 760.785 976.144 762.505 C 976.967 763.618 976.683 763.349 976.327 764.822 C 974.832 766.5 973.421 767.66 971.454 768.778 C 961.369 774.507 950.983 775.421 940.035 772.53 C 939.19 771.898 937.621 770.89 937.003 769.955 C 935.644 767.897 935.292 766.162 935.702 763.79 C 941.732 760.347 947.764 766.137 953.721 766.603 C 959.387 767.047 965.96 761.936 970.461 758.814 z"/>
<path transform="translate(0,0)" fill="rgb(254,254,254)" d="M 544.918 962.916 C 546.766 962.803 548.664 962.665 550.513 962.798 C 554.165 963.063 558.062 964.967 560.449 967.751 C 565.833 974.029 564.823 983.341 564.382 990.968 C 568.563 988.672 572.914 986.112 577.781 985.795 C 581.473 985.555 584.533 986.396 587.194 989.127 C 591.71 993.76 591.184 1000.38 591.185 1006.32 C 594.75 1003.83 598.38 1001.03 602.217 998.993 C 605.139 997.442 608.93 996.529 612.101 997.862 C 617.096 999.961 619.811 1006.4 621.697 1011.05 C 625.941 1008.68 630.236 1006.39 634.509 1004.07 C 646.945 1019.6 656.379 1019.88 667.331 1040.26 C 670.114 1035.34 671.726 1029.18 675.153 1024.73 C 676.763 1022.65 678.867 1021.14 681.588 1021.02 C 686.886 1020.78 691.29 1024.86 695.314 1027.79 C 698.935 1027.56 705.851 1025.96 709.015 1027.83 C 711.205 1031.6 713.169 1034.12 716.625 1036.82 C 716.942 1037.07 717.267 1037.31 717.587 1037.56 L 729.359 1033.83 C 732.354 1036.87 736.331 1041.93 740.206 1043.67 C 745.019 1045.84 794.445 1049.94 805.592 1051.78 C 802.463 1064.29 798.396 1075.89 793.079 1087.64 A 27357.4 27357.4 0 0 1 436.552 1096.07 C 369.532 1096.73 302.495 1099.35 235.471 1100.24 C 237.992 1087.42 240.734 1072.38 249.589 1062.2 C 251.598 1059.89 253.305 1058.84 256.441 1058.67 C 263.082 1060.88 265.768 1069.6 269.729 1074.96 L 270.429 1075.9 L 276.48 1062.65 C 282.304 1065.96 287.372 1070.46 292.552 1074.68 C 293.428 1069.63 294.165 1064.37 295.562 1059.44 C 297.985 1050.88 303.741 1040.33 312 1036.14 C 314.306 1034.97 316.701 1034.5 319.162 1035.58 C 325.2 1038.23 327.391 1046.35 329.038 1052.11 C 331.093 1049.28 333.127 1046.3 335.477 1043.7 C 338.172 1040.72 342.62 1037.91 346.814 1038.23 C 357.694 1039.06 365.244 1054.16 372.49 1061.13 C 372.761 1061.39 373.037 1061.64 373.31 1061.9 C 378.528 1051.45 384.715 1038.99 395.901 1033.71 C 398.935 1032.28 401.679 1031.95 404.835 1033.3 C 407.447 1034.43 409.56 1035.98 412.448 1035.1 C 415.162 1026.6 413.204 1018.17 416.844 1009.51 C 416.997 1009.15 417.157 1008.79 417.314 1008.43 C 421.345 1006.1 426.878 1002.64 431.7 1004.14 C 433.634 1004.74 435.618 1005.56 437.539 1006.23 C 441.435 1002.13 443.057 988.741 449.566 981.438 C 453.577 976.937 458.788 973.707 464.951 973.635 C 476.11 973.505 484.007 980.381 491.323 987.778 C 492.077 985.523 492.816 983.251 493.744 981.059 C 495.417 977.104 498.914 971.823 503.393 970.68 C 511.76 968.544 521.741 981.086 528.725 984.589 C 535.895 984.248 534.851 970.204 544.039 963.535 C 544.329 963.325 544.625 963.122 544.918 962.916 z"/>
<path transform="translate(0,0)" fill="rgb(254,254,254)" d="M 673.729 1384.39 C 689.071 1381.59 709.861 1384.17 725.202 1387.18 C 715.278 1421.74 706.553 1459.98 689.102 1491.67 A 212.981 212.981 0 0 0 685.96 1493.67 C 677.522 1499.16 670.118 1506.12 668.236 1516.46 C 666.581 1525.56 669.221 1535.67 674.625 1543.1 C 679.669 1550.03 687.334 1555.24 695.898 1556.48 A 26.4834 26.4834 0 0 0 715.852 1551.28 C 722.914 1545.81 727.593 1536.32 728.265 1527.48 C 729.047 1517.19 724.518 1509.08 718.115 1501.52 C 734.823 1470.88 745.62 1436.96 755.893 1403.75 C 759.212 1406 762.471 1408.46 765.364 1411.24 C 791.57 1436.45 794.181 1477.2 794.301 1511.21 C 773.946 1515.17 753.612 1519.38 734.415 1527.43 C 754.362 1527.22 773.479 1523.2 793.238 1521.11 C 792.044 1537.64 788.263 1553.41 784.101 1569.37 C 762.909 1576.56 739.009 1583.37 719.984 1595.22 C 740.007 1592.03 760.337 1585.63 780.246 1581.23 C 777.224 1589.83 773.117 1598.26 768.7 1606.22 C 750.441 1639.16 721.465 1659.38 685.589 1669.6 C 668.436 1673.07 650.953 1673.74 633.834 1669.74 C 606.369 1663.33 587.927 1649.85 573.128 1626.05 C 593.162 1622.18 617.354 1617.05 635.269 1607.27 C 612.924 1610.54 590.723 1615.01 568.369 1617.96 C 562.367 1605.91 558.706 1594.48 556.514 1581.19 C 561.403 1580.34 573.835 1579.7 577.454 1576.97 C 570.758 1573.82 563.363 1574.21 556.152 1574.34 C 554.041 1563.01 554.003 1551.04 553.858 1539.54 C 561.702 1537.54 589.218 1532.55 593.615 1527.56 L 592.407 1526.27 C 582.473 1523.59 564.79 1529.88 554.668 1532.06 C 555.484 1522.11 557.694 1512.23 559.535 1502.43 C 573.205 1499.16 649.78 1481.41 656.5 1476.58 L 655.526 1475.25 C 635.892 1473.09 584.204 1485.93 563.202 1490.74 C 570.22 1467.81 580.531 1447.7 594.287 1428.12 C 623.874 1420.83 655.121 1418.75 684.534 1410.49 C 687.113 1409.77 688.45 1409.66 689.803 1407.2 L 688.21 1405.8 C 671.994 1402.96 624.991 1413.46 605.736 1416.61 C 623.903 1396.41 647.186 1387.46 673.729 1384.39 z"/>
<path transform="translate(0,0)" fill="rgb(254,254,254)" d="M 1712.45 936.77 C 1713.61 937.028 1714.21 937.131 1715.28 937.461 C 1728.05 941.397 1732.42 955.647 1738.35 966.214 C 1745.09 962.834 1754.2 957.371 1761.99 959.966 C 1770.07 962.658 1773.9 974.023 1777.13 980.986 C 1778.84 979.672 1780.57 978.357 1782.41 977.227 C 1785.68 975.218 1789.12 974.503 1792.9 975.551 C 1799.39 977.352 1803.25 985.175 1806.47 990.475 C 1809.86 988.239 1813.31 985.811 1817.15 984.428 C 1819.83 983.463 1823.05 983.076 1825.6 984.619 C 1831.47 988.171 1832.46 996.97 1833.9 1003.06 C 1834.35 1002.95 1834.8 1002.85 1835.24 1002.73 C 1837.5 1002.14 1840.53 1000.83 1842.86 1001.4 C 1848.19 1002.71 1852.43 1015.59 1855.95 1020.07 L 1856.8 1021.13 C 1859.2 1014.5 1861.91 1006.97 1867.09 1001.99 C 1869.8 999.383 1873.13 997.774 1876.97 997.995 C 1899.28 999.282 1892.08 1023.5 1901.75 1034.22 C 1904.75 1032.13 1904.02 1022.74 1907.07 1019.29 C 1908.05 1018.18 1908.9 1017.42 1910.4 1017.29 C 1915.5 1016.88 1922.61 1025.03 1926.41 1028.46 C 1926.54 1025.06 1926.56 1021.5 1927.38 1018.18 C 1928.12 1015.21 1929.29 1013.18 1931.97 1011.57 C 1941.38 1010.22 1951.17 1029.11 1959.25 1033.2 C 1964.6 1035.91 1966.65 1026.97 1972.2 1024.88 C 1977.23 1025.32 1981.9 1028.01 1985.75 1031.17 C 2000.99 1043.71 2005 1062.37 2006.64 1080.98 L 1860.43 1083.97 A 492.442 492.442 0 0 0 1856.87 1062.83 C 1854.29 1069.63 1852.52 1076.88 1850.49 1083.86 L 1677.23 1085.19 L 1495.83 1086.12 C 1463.48 1086.37 1430.01 1088.82 1397.77 1086.59 C 1394.19 1086.34 1391.06 1085.54 1387.7 1084.32 C 1392.29 1082.84 1401.8 1082.55 1404.85 1079.14 C 1404.6 1073.91 1399.35 1068.26 1397.88 1062.94 C 1397 1059.74 1397.05 1056.52 1398.96 1053.67 C 1402.28 1048.7 1407.81 1047.4 1413.29 1046.2 C 1412.08 1042.8 1410.78 1039.35 1409.92 1035.84 C 1408.79 1031.21 1408.7 1027.99 1411.17 1023.87 C 1412.84 1022.74 1413.81 1022.19 1415.88 1021.99 C 1427 1020.97 1440.63 1033.72 1448.34 1040.42 C 1449.41 1032.75 1450.78 1025.44 1454.3 1018.43 C 1456.38 1014.29 1459.42 1010.05 1464.11 1008.74 C 1468.04 1007.64 1470.77 1008.94 1474.19 1010.72 C 1475.53 1011.41 1474.78 1011.31 1476.29 1011.02 L 1476.66 1009.88 C 1477.79 1006.45 1478.34 1003.81 1481.91 1002.24 C 1490.66 998.376 1505.93 1000.66 1514.65 1003.97 C 1524.61 1007.75 1528.82 1012.97 1533.13 1022.2 C 1562.42 1014.82 1545.63 1009.07 1553.94 998.869 C 1558.43 993.358 1570.1 991.192 1576.82 990.098 L 1586.58 1000.17 C 1587.68 980.526 1587.48 967.572 1597.86 949.931 C 1599.97 953.206 1602.54 957.566 1606.5 958.63 C 1610.04 954.329 1610.95 949.785 1615.8 946.013 C 1620.56 942.314 1626.46 940.511 1632.44 941.634 C 1643.41 943.694 1649.66 952.598 1655.35 961.262 C 1657.86 955.212 1660.08 947.813 1664.68 943.025 C 1666.86 940.763 1669.47 939.059 1672.78 939.473 C 1681.47 940.559 1690.34 955.86 1695.4 962.431 A 181.551 181.551 0 0 1 1697.35 954.787 C 1699.99 945.484 1704.21 941.471 1712.45 936.77 z"/>
<path transform="translate(0,0)" fill="rgb(254,254,254)" d="M 412.355 321.192 C 418.441 320.556 424.307 320.5 430.273 322.068 C 455.773 328.769 462.398 356.146 467.457 378.591 C 468.763 384.386 469.639 391.81 472.783 396.906 C 473.905 398.724 475.342 400.561 477.661 400.172 C 486.658 398.664 495.446 394.746 504.246 392.28 C 528.654 385.442 557.243 382.755 582.076 388.894 C 649.216 405.491 618.056 468.287 625.074 477.897 C 632.81 488.489 681.58 485.858 700.537 518.159 C 709.962 534.218 715.018 584.948 705.138 600.944 C 700.659 608.195 685.976 612.649 684.233 620.5 C 682.748 627.188 692.671 636.371 689.849 646.238 C 686.791 656.93 679.285 658.317 670.716 663.445 C 659.776 669.991 664.381 690.062 661.358 701.436 C 657.863 714.586 649.507 723.745 637.735 730.197 C 605.392 747.923 571.785 736.347 538.978 727.133 C 510.876 719.239 514.145 733.49 494.336 743.846 C 484.63 748.921 475.182 747.135 465.215 744.229 C 468.954 732.828 473.083 721.429 475.631 709.692 C 477.986 698.847 483.515 674.69 476.571 664.924 C 474.919 662.6 472.34 661.297 469.5 661.198 C 461.734 660.928 441.614 692.57 434.741 699.01 L 433.633 700.04 C 428.838 692.793 421.765 680.802 413.393 677.5 C 411.079 676.588 408.518 676.528 406.297 677.777 C 401.938 680.227 400.674 686.223 399.183 690.627 C 399.211 693.686 399.724 696.812 400.072 699.856 C 394.378 696.213 386.874 685.64 380.559 684.88 C 370.884 687.616 359.198 720.276 346.646 732.123 C 340.476 737.946 333.912 741.173 325.291 740.675 C 299.373 739.181 301.582 712.872 291.07 701.439 C 283.171 701.359 270.884 715.547 263.571 719.965 C 243.389 732.159 219.064 742.992 195.08 743.209 C 181.883 743.327 169.129 740.254 159.621 730.492 C 144.339 714.802 142.012 691.238 142.173 670.546 C 142.202 666.885 142.704 656.828 139.895 654.469 C 137.488 652.448 134.901 652.466 131.947 652.688 C 128.369 652.958 125.903 653.585 122.959 651.291 C 121.76 648.174 121.841 645.613 122.301 642.378 C 125.215 621.922 140.996 603.011 157.099 591.048 C 162.877 586.755 169.364 583.22 174.952 578.716 C 187.174 568.864 172.981 563.181 174.606 551.839 C 176.101 541.4 189.727 533.976 190.067 524.874 C 190.258 519.786 187.433 513.716 186.668 508.589 C 185.3 499.431 186.824 487.504 187.813 478.275 C 190.775 450.627 203.147 421.567 225.457 404.071 C 234.265 397.163 246.536 390.711 257.991 392.398 C 279.875 395.622 280.05 416.091 291.058 428.833 C 292.774 430.82 293.74 430.997 296.265 431.055 L 295.254 430.508 L 296.711 430.73 C 300.99 423.959 300.188 410.939 301.298 402.901 C 302.575 393.652 307.818 371.201 316.437 366.404 C 317.831 365.628 319.16 364.99 320.754 365.364 C 329.4 367.388 332.688 385.2 337.967 391.606 C 339.6 393.587 340.547 393.874 343.02 393.993 C 344.406 393.048 345.856 392.203 346.564 390.591 C 347.996 387.326 347.915 382.639 348.582 379.076 C 349.752 372.83 353.515 365.913 356.832 360.531 C 369.537 339.919 389.061 326.707 412.355 321.192 z"/>
<path transform="translate(0,0)" fill="rgb(254,254,254)" d="M 1629.95 332.245 C 1637.74 331.23 1644.49 331.713 1651.74 334.932 C 1673.59 344.622 1684.22 372.611 1689.39 394.2 C 1691.27 402.04 1692.05 411.161 1695.29 418.515 C 1697.91 424.47 1701.05 423.777 1706.62 422.397 C 1716.29 420.003 1725.85 417.093 1735.65 415.285 C 1763.7 410.11 1798.14 410.213 1825.04 420.649 C 1860.1 434.253 1863.39 462.157 1858.84 495.191 C 1857.86 502.337 1855.35 511.014 1858.3 517.845 C 1864.85 524.16 1882.61 524.285 1891.64 526.628 C 1910.86 531.615 1929.13 540.958 1939.28 558.709 C 1952.17 581.267 1952 618.975 1944.94 643.269 C 1939.81 660.918 1928.98 661.209 1914.72 668.981 C 1912.52 675.883 1921.79 677.714 1922.42 685.613 C 1923.43 698.356 1916.83 710.911 1906.37 717.867 C 1903.44 719.814 1898.01 722.338 1896 725.19 C 1889.82 733.941 1900.39 759.542 1880.36 781.597 C 1852.75 812.007 1800.4 797.573 1767.38 786.764 C 1759.82 784.287 1747.75 778.411 1739.97 778.923 C 1730.1 779.572 1719.04 805.734 1696.75 806.307 C 1691.54 806.441 1683.97 804.069 1680.59 799.882 C 1679 797.915 1678.94 795.011 1679.26 792.621 C 1679.92 787.701 1682.23 782.689 1683.78 777.977 C 1688.88 762.491 1699.65 736.604 1698.93 720.478 C 1698.77 716.797 1697.63 712.843 1694.49 710.593 C 1691.16 708.211 1685.4 707.916 1681.58 709.002 C 1667.83 712.909 1655.02 757.108 1648.2 770.407 C 1649.05 756.752 1650.58 738.931 1641.61 727.543 C 1639.12 724.371 1634.87 720.659 1630.55 720.675 C 1627.75 720.685 1625.89 721.534 1623.83 723.39 C 1612.99 733.157 1615.55 761.09 1615.43 774.508 C 1615.59 777.096 1615.84 778.661 1614.91 781.156 C 1607.07 767.944 1610.5 749.02 1604.24 735.316 C 1602.7 731.925 1600.43 729.077 1596.68 728.026 C 1573.21 721.448 1560.33 779.928 1536.98 790.991 C 1530.19 794.211 1521.47 794.524 1514.44 791.81 C 1493.8 783.842 1502.49 760.784 1495.94 750.168 C 1495.1 748.801 1494.1 747.827 1492.53 747.493 C 1484.49 745.779 1460.12 766.599 1452.88 771.134 C 1428.91 786.168 1401.92 798.766 1373.01 791.75 C 1340.51 783.863 1326.59 752.341 1323.85 721.513 C 1323.19 714.095 1324.24 699.293 1320.59 693.343 C 1313.94 690.479 1305.82 693.57 1299.09 695.103 C 1298.99 691.193 1298.82 687.195 1299.31 683.306 C 1302.65 656.222 1320.91 631.707 1344.51 618.558 C 1350.93 614.983 1360.43 612.767 1365.93 608.12 C 1367.73 606.598 1367.57 605.794 1367.85 603.581 C 1366.52 599.823 1364.34 597.402 1361.76 594.409 A 109.85 109.85 0 0 1 1362.08 588.003 C 1362.7 579.917 1364.07 569.85 1370.34 564.089 C 1372.73 561.89 1376.05 560.232 1378.21 557.87 C 1382.97 552.674 1376.78 534.397 1376.24 527.36 C 1373.88 496.514 1384.85 458.274 1405.63 435.017 C 1415.37 424.122 1429.89 414.057 1444.94 413.617 C 1475.68 412.718 1478.06 454.7 1490 463.792 C 1492.23 465.492 1492.71 465.546 1495.27 465.109 C 1499.27 460.951 1496.65 439.843 1497.84 432.639 A 81.6924 81.6924 0 0 1 1505.15 410.194 C 1508.69 403.055 1519.98 384.698 1528.19 383.327 C 1537.7 381.739 1540.37 404.635 1546.62 409.921 C 1548.42 410.531 1549.62 411.093 1551.56 410.668 C 1553.1 410.329 1554.15 408.822 1554.78 407.432 C 1560.11 395.718 1562.89 384.116 1570.16 373.112 C 1584.08 352.062 1605.23 337.314 1629.95 332.245 z"/>
</svg>