<?xml version="1.0" encoding="UTF-8" standalone="no"?>
<svg width="512" height="512" viewBox="0 0 512 512" fill="none" xmlns="http://www.w3.org/2000/svg">
  <rect width="512" height="512" fill="#1E293B"/>
  <path d="M256 128C245.333 128 236 130.667 228 136C220 141.333 214 148.667 210 158C206 167.333 204 177.333 204 188C204 198.667 206 208.667 210 218C214 227.333 220 234.667 228 240C236 245.333 245.333 248 256 248C266.667 248 276 245.333 284 240C292 234.667 298 227.333 302 218C306 208.667 308 198.667 308 188C308 177.333 306 167.333 302 158C298 148.667 292 141.333 284 136C276 130.667 266.667 128 256 128ZM256 232C248 232 240.667 230 234 226C227.333 222 222 216.667 218 210C214 203.333 212 196 212 188C212 180 214 172.667 218 166C222 159.333 227.333 154 234 150C240.667 146 248 144 256 144C264 144 271.333 146 278 150C284.667 154 290 159.333 294 166C298 172.667 300 180 300 188C300 196 298 203.333 294 210C290 216.667 284.667 222 278 226C271.333 230 264 232 256 232Z" fill="#94A3B8"/>
  <path d="M384 384H128V368C128 354.667 131.333 342.667 138 332C144.667 321.333 153.667 313 165 307C176.333 301 188.667 298 202 298H310C323.333 298 335.667 301 347 307C358.333 313 367.333 321.333 374 332C380.667 342.667 384 354.667 384 368V384ZM368 368V368C368 358.667 365.667 350 361 342C356.333 334 350 327.667 342 323C334 318.333 326 316 318 316H194C186 316 178 318.333 170 323C162 327.667 155.667 334 151 342C146.333 350 144 358.667 144 368V368H368Z" fill="#94A3B8"/>
  <text x="256" y="440" font-family="Arial, sans-serif" font-size="24" text-anchor="middle" fill="#94A3B8">Image Unavailable</text>
</svg>
